<svg xmlns="http://www.w3.org/2000/svg" viewBox="0 0 151.94 122.35"><defs><style>.cls-1{fill:#1b85b9;}</style></defs><title>Asset 3crossimpactshort</title><g id="Layer_2" data-name="Layer 2"><g id="Layer_1-2" data-name="Layer 1"><path d="M61,122.31c-39.88-.06-68-35.78-59.51-74.6A60,60,0,0,1,52.81.53c24.25-3.31,48.93,9.24,60.79,30.91,2.81,5.15,2.76,4.89-3.12,5.33-5.33.39-8.57-1.42-11.91-5.81C76.59,2,30.87,7.62,16.18,40.83c-10.31,23.31-1.67,50.48,20,63s48.7,6.61,64-14.09c2.41-3.27,10.7-5.52,14.17-3.75,2.26,1.14.53,2.61,0,3.66q-13.69,25.5-42,31.55A44,44,0,0,1,61,122.31Z"/><path class="cls-1" d="M95.25.93c10.15-1.2,19.48.88,28.43,5.32a59.9,59.9,0,0,1,26.63,25.42c2.69,4.91,2.24,5.19-3.51,5.59C142,37.59,138.73,36.08,136,32c-4.54-6.74-10.65-12.18-18.29-15C108.59,13.69,103.38,5.48,95.25.93Z"/><path class="cls-1" d="M95.3,121.53c8.59-5.46,15.11-13.48,24.85-17.34,7.33-2.92,12.73-8.91,17.33-15.4,2.17-3.06,9.82-4.78,13.1-3.16,2.48,1.22.94,2.86.26,4.16a59.25,59.25,0,0,1-32.51,28.72C111,121.31,103.4,123,95.3,121.53Z"/><path d="M122.68,61.64A10.62,10.62,0,0,1,112.1,72.5,10.75,10.75,0,1,1,111.88,51,10.61,10.61,0,0,1,122.68,61.64Z"/></g></g></svg>