<?xml version="1.0" encoding="utf-8"?>
<!-- Subtle, low-opacity SVG version for background use -->
<svg version="1.1" id="Layer_1"
     xmlns="http://www.w3.org/2000/svg"
     x="0px" y="0px"
     viewBox="0 0 5000 4916"
     style="enable-background:new 0 0 5000 4916;"
     xml:space="preserve">
  <g opacity="1">
    


    <path d="M88.521,2750.029c496.817-810.861,1390.984-1351.832,2411.478-1351.832c1020.495,0,1914.661,540.971,2411.478,1351.832
      c-479.294-849.377-1379.715-1421.467-2411.478-1421.467C1468.237,1328.562,567.817,1900.652,88.521,2750.029" opacity="0.7" fill="#f0f9ff"/>


    <path d="M2499.999,1948.612c769.817,0,1450.366,382.276,1862.236,967.388H5000v-10.666
      c-473.942-896.355-1415.655-1507.137-2500.001-1507.137C1415.658,1398.197,473.941,2008.98,0,2905.334V2916h637.763
      C1049.635,2330.889,1730.182,1948.612,2499.999,1948.612" opacity="0.6" fill="#dbeafe"/>


    <path d="M1375.239,2916c302.055-259.888,695.068-416.973,1124.761-416.973c429.695,0,822.707,157.084,1124.762,416.973h737.474
      c-411.87-585.111-1092.419-967.388-1862.236-967.388S1049.635,2330.889,637.763,2916H1375.239z" opacity="0.3"  fill="#93c5fd"/>


    <path d="M3624.761,2916c-302.055-259.888-695.067-416.973-1124.762-416.973c-429.693,0-822.705,157.084-1124.761,416.973H3624.761z" opacity="0.8" fill="#93c5fd"/>
  </g>
</svg>
